<svg width="518" height="517" viewBox="0 0 518 517" fill="none" xmlns="http://www.w3.org/2000/svg">
<path d="M499.802 350.61C499.274 352.897 498.979 355.27 498.179 357.458C492.841 372.062 486.095 385.907 476.059 397.965C475.166 399.038 474.824 400.582 474.281 401.929C473.974 402.692 474.015 403.946 473.498 404.219C466.474 407.933 465.899 417.265 458.653 420.924C455.045 422.746 452.424 425.826 452.908 430.617C453.024 431.763 451.728 433.179 450.845 434.28C442.307 444.92 431.383 452.869 420.606 460.983C398.045 477.969 374.499 493.214 347.082 501.255C338.973 503.634 330.582 505.044 322.335 506.959C320.28 507.436 318.281 508.151 315.397 509.014C317.752 510.338 319.232 511.17 321.845 512.64C313.63 514.24 306.614 515.94 299.496 516.778C297.512 517.012 295.228 514.696 291.935 512.938C281.1 514.066 268.585 516.092 256.026 516.42C247.712 516.638 239.194 515.005 231.041 513.058C226.677 512.015 223.255 512.019 219.247 513.854C216.4 515.157 212.977 515.716 209.818 515.692C205.917 515.662 202.617 514.503 202.27 509.257C202.15 507.455 199.274 505.618 197.347 504.224C195.974 503.231 193.21 503.43 192.578 502.272C190.065 497.666 188.228 492.697 185.972 487.942C184.822 485.517 190.53 483.802 186.75 481.827C185.462 481.154 182.821 483.272 180.729 483.873C178.94 484.386 177.052 484.553 174.804 484.944C175.835 482.375 181.868 482.073 177.853 477.925C174.889 474.863 171.708 475.313 168.917 477.064C168.617 480.295 168.804 483.173 167.94 485.69C167.442 487.142 165.247 488.012 163.815 489.143C163.218 487.761 162.559 486.4 162.055 484.984C161.862 484.444 162.023 483.778 162.023 482.868C159.067 482.868 156.419 482.985 153.786 482.83C151.813 482.713 149.591 482.729 147.962 481.821C145.416 480.402 142.393 478.67 141.26 476.273C140.422 474.501 142.271 471.458 143.236 467.789C140.282 468.015 137.201 468.25 134.077 468.488C135.097 475.323 135.96 481.109 136.824 486.896C136.285 487.3 135.746 487.704 135.206 488.108C130.45 482.349 123.983 480.207 116.508 479.213C117.927 475.647 118.938 473.107 119.949 470.568C119.713 470.209 119.476 469.85 119.24 469.491C116.722 471.099 114.205 472.707 111.614 474.362C104.829 472.681 103.847 466.495 101.992 461.486C105.808 458.87 109.387 456.417 113.055 453.902C110.843 449.749 108.952 446.939 104.483 450.431C103.764 450.993 101.992 450.266 100.721 450.053C99.0177 449.767 97.3283 449.401 94.8003 448.906C95.8599 451.438 96.5507 453.088 97.6458 455.705C94.2447 454.421 91.805 453.5 89.319 452.562C85.6231 447.705 87.6382 438.951 78.7084 436.344C82.4543 431.004 84.0808 425.345 77.2591 422.277C74.261 424.587 72.112 427.553 70.2025 427.406C67.3241 427.185 64.2053 425.241 61.9373 423.198C59.2808 420.805 57.5681 417.396 55.1586 414.683C54.1294 413.524 52.176 412.106 50.9825 412.367C46.6955 413.301 45.5661 410.216 43.8253 407.67C23.7685 378.341 10.1272 346.311 3.36593 311.404C2.97979 309.41 1.43319 306.924 4.82876 305.473C5.49832 305.186 5.72372 302.694 5.39468 301.414C0.318538 281.671 0.171535 261.593 0.957454 241.416C1.34289 231.52 0.122066 221.568 2.90679 211.787C4.89736 204.795 5.94436 197.523 8.11447 190.596C11.4817 179.849 15.3414 169.249 19.2505 158.682C19.9998 156.657 21.6011 154.514 23.4106 153.415C26.2018 151.72 29.1053 150.652 28.0974 146.489C27.9852 146.025 28.8629 145.147 29.4639 144.713C35.7239 140.194 37.4968 133.663 38.0869 126.426C38.2781 124.081 38.9409 121.476 40.241 119.573C45.4009 112.019 50.2493 104.097 56.4093 97.4142C68.2535 84.5646 80.9476 72.5007 93.204 60.0273C95.9768 57.2054 99.0729 56.5552 103.329 57.6499C104.226 57.682 104.512 57.5842 104.798 57.4863C104.593 57.2644 104.388 57.0424 104.183 56.8205C103.969 55.7053 103.754 54.5901 103.49 53.2199C110.341 50.2741 117.032 46.9679 120.988 40.0198C121.503 39.1154 122.818 38.631 123.817 38.0429C174.654 8.09181 229.34 -4.11559 288.056 2.76249C337.374 8.53956 381.315 27.3578 420.099 58.2308C423.948 61.2948 427.053 65.34 430.295 69.1096C436.698 76.5553 442.667 84.3973 449.391 91.5339C452.81 95.1637 457.506 97.5812 461.564 100.627C462.721 101.495 463.823 102.528 464.686 103.683C474.572 116.898 482.569 131.163 490.147 145.858C499.764 164.504 506.638 183.895 511.409 204.176C516.322 225.059 518.966 256.25 517.122 270.999C509.536 271.074 509.536 271.074 507.021 267.082C509.21 265.989 511.385 264.903 513.803 263.696C508.677 261.306 504.627 259.345 500.499 257.566C499.803 257.266 498.183 257.499 497.995 257.927C497.313 259.477 496.88 261.196 496.707 262.887C496.584 264.094 496.999 265.365 497.225 266.598C497.832 269.899 494.431 273.89 498.968 276.601C499.295 276.796 498.81 278.349 498.589 280.252C497.395 278.183 496.691 276.963 495.548 275.374C494.737 275.002 494.362 274.999 493.988 274.996C491.892 272.627 484.469 273.412 483.099 276.134C481.708 278.896 480.287 281.643 478.579 284.984C481.091 286.446 484.268 288.295 487.446 290.143C491.882 292.432 490.943 288.187 491.315 286.889C494.667 288.038 497.628 289.017 500.562 290.067C503.468 291.107 506.348 292.217 509.811 293.51C509.371 294.795 508.754 296.242 508.39 297.75C507.925 299.679 504.63 301.712 508.763 303.748C509.332 304.028 508.016 308.134 507.664 309.989C505.883 310.544 504.412 311.003 502.941 311.461C503.871 312.884 504.513 314.75 505.817 315.597C506.968 316.344 509.258 318.918 510.643 315.052C510.994 314.991 510.961 314.948 510.961 314.948C510.234 319.612 509.508 324.276 508.638 329.858C503.852 327.781 499.933 326.081 495.519 324.167C494.189 327.095 492.426 330.977 490.223 335.826C495.487 340.906 496.831 330.521 501.494 331.191C501.301 333.754 501.102 336.417 500.887 339.273C497.883 340.139 494.89 341.001 491.104 342.092C494.372 343.956 498.364 344.904 496.409 349.494C496.376 349.572 498.194 350.438 499.487 350.809C499.825 350.682 499.802 350.61 499.802 350.61ZM221.07 153.068C218.059 145.31 211.286 141.028 204.123 142.353C195.92 143.87 190.301 151.105 191.064 159.166C191.838 167.339 198.675 173.261 207.068 173.026C215.619 172.787 221.461 166.441 222.716 157.159C228.583 157.587 234.446 158.199 240.319 158.318C241.853 158.349 243.419 156.85 244.97 156.053C243.548 155.066 242.139 153.255 240.704 153.234C234.169 153.141 227.627 153.551 221.07 153.068ZM212.735 300.248C229.736 282.398 246.756 264.568 263.709 246.673C265.552 244.728 266.987 243.836 270.068 244.606C279.603 246.989 287.048 239.165 285.36 229.436C285.043 227.61 285.94 224.911 287.256 223.589C291.002 219.824 295.173 216.461 299.32 213.118C322.95 194.067 349.54 182.468 380.246 181.989C401.306 181.66 420.62 187.136 435.76 202.552C440.909 207.795 444.346 214.7 448.772 220.693C449.675 221.915 451.509 222.449 452.913 223.301C453.287 221.616 454.04 219.904 453.92 218.255C453.818 216.874 452.751 215.537 452.019 214.231C441.676 195.763 425.958 184.222 405.63 179.079C377.676 172.006 351.147 177.33 325.585 189.301C309.893 196.65 296.387 207.172 283.578 218.701C282.126 220.009 279.459 221.145 277.713 220.756C266.516 218.261 258.899 225.584 261.176 236.794C261.498 238.377 260.747 240.423 259.908 241.929C259.045 243.478 257.477 244.638 256.2 245.951C237.044 265.644 218.443 285.918 198.575 304.863C177.849 324.628 153.57 338.318 124.524 342.362C89.11 347.294 60.6507 328.671 52.2404 293.892C49.9939 284.602 49.8899 274.806 48.4857 265.289C48.2295 263.552 46.4409 262.041 45.3596 260.426C44.3498 262.249 42.3041 264.192 42.4986 265.876C43.7354 276.582 44.4827 287.491 47.2173 297.851C55.8364 330.505 81.5889 349.514 115.342 348.994C133.35 348.716 150.032 343.311 165.958 335.274C183.398 326.472 198.122 314.018 212.735 300.248ZM191.069 238.305C185.83 243.776 180.591 249.246 174.932 255.154C169.562 240.94 160.694 232.694 146.445 232.103C133.828 231.579 124.055 237.285 118.486 248.624C111.351 263.153 115.629 275.694 127.16 286.589C118.888 290.625 111.079 294.709 100.786 296.273C102.395 293.408 103.044 291.696 104.158 290.376C107.158 286.82 110.51 283.553 113.385 279.905C114.288 278.759 114.12 276.768 114.443 275.164C112.827 275.269 110.516 274.725 109.712 275.588C105.305 280.31 100.688 285.01 97.2518 290.422C93.1579 296.869 96.546 302.319 104.008 300.807C112.351 299.116 120.421 295.758 128.349 292.489C131.859 291.042 134.77 290.226 138.637 291.196C155.272 295.367 172.491 283.942 174.767 267.057C175.338 262.821 177.233 260.393 180.071 257.607C186.091 251.697 191.897 245.479 197.022 238.797C198.637 236.69 199.122 231.716 197.725 229.849C196.265 227.896 191.728 227.072 188.871 227.593C183.71 228.533 178.763 230.746 173.8 232.62C171.614 233.445 168.207 234.141 169.853 237.435C170.341 238.411 174.126 238.348 176.154 237.819C180.473 236.691 184.607 234.871 188.869 233.497C190.157 233.081 191.616 233.198 193.878 232.99C192.828 235.142 192.198 236.436 191.069 238.305ZM315.233 324.305C317.938 329.556 321.359 334.575 323.162 340.119C325.292 346.668 322.205 350.644 315.374 351.663C313.12 351.999 310.669 351.921 308.452 351.411C301.978 349.919 295.592 348.053 289.144 346.443C273.489 342.533 259.728 345.072 249.185 358.363C247.545 360.431 243.79 362.481 247.101 365.232C250.242 367.843 252.129 363.991 253.743 362.018C262.022 351.899 272.508 348.785 284.994 351.751C290.004 352.94 294.89 354.815 299.952 355.573C306.103 356.493 312.509 357.545 318.574 356.758C326.593 355.719 331.172 348.897 329.395 341.071C328.065 335.212 325.617 329.364 322.498 324.221C319.111 318.638 314.371 313.876 310.221 308.756C309.367 309.907 310.265 309.746 311.169 309.7C323.647 309.07 334.589 313.415 343.724 321.408C352.717 329.277 361.105 337.894 369.261 346.647C376.212 354.109 384.569 357.65 394.491 357.759C396.02 357.776 397.567 356.103 399.105 355.211C397.619 354.115 396.175 352.14 394.641 352.067C385.626 351.638 378.507 348.093 372.44 341.316C365.568 333.641 358.287 326.271 350.659 319.348C336.218 306.24 319.34 300.792 299.932 305.119C297.893 305.573 296.122 307.23 294.227 308.329C295.766 309.817 297.154 311.515 298.873 312.755C304.096 316.526 309.446 320.12 315.233 324.305ZM473.542 263.931C474.245 262.408 474.949 260.884 475.652 259.36C474.075 258.677 472.518 257.46 470.919 257.403C464.527 257.176 458.122 257.309 451.062 257.309C456.27 251.361 461.416 245.794 466.123 239.879C467.215 238.507 466.812 235.947 467.098 233.933C465.315 234.624 462.999 234.825 461.837 236.088C455.538 242.934 449.45 249.98 443.477 257.114C442.353 258.455 442.075 260.504 441.407 262.226C443.206 262.781 444.989 263.745 446.806 263.814C452.36 264.024 457.926 263.89 463.488 263.89C462.872 265.898 461.638 266.91 460.458 267.983C453.573 274.246 446.674 280.495 439.841 286.815C438.096 288.428 435.197 290.273 437.867 292.755C438.68 293.511 442.402 292.289 443.901 290.965C453.742 282.273 463.338 273.305 473.542 263.931ZM44.1074 218.159C49.8719 226.546 58.593 229.181 66.4536 224.912C74.2341 220.687 77.5085 211.46 74.0449 203.521C70.3256 194.996 60.4725 191.124 51.9443 194.836C43.34 198.581 39.951 207.968 44.1074 218.159ZM449.591 315.885C447.352 319.771 445.409 323.868 442.814 327.5C437.611 334.782 431.196 340.684 422.635 344.044C421.33 344.556 420.708 346.81 419.77 348.259C421.485 348.618 423.189 349.11 424.923 349.272C425.659 349.341 426.479 348.757 427.228 348.403C440.568 342.088 449.178 331.282 454.849 318.128C457.037 313.052 457.781 307.303 458.72 301.782C458.907 300.677 456.989 299.215 456.041 297.917C455.025 299.157 453.499 300.248 453.086 301.664C451.792 306.099 450.918 310.656 449.591 315.885ZM243.627 189.996C237.817 184.054 232.054 178.064 226.155 172.211C224.977 171.042 223.277 170.398 221.818 169.512C221.496 169.892 221.174 170.272 220.852 170.652C221.287 171.624 221.493 172.82 222.192 173.533C228.828 180.298 235.519 187.011 242.289 193.642C242.96 194.3 244.257 194.321 245.263 194.637C244.885 193.265 244.508 191.893 243.627 189.996ZM112.571 156.865C107.593 158.187 105.015 161.129 106.813 164.57C107.947 166.742 111.018 169.097 113.254 169.13C115.139 169.157 118.14 166.261 118.749 164.119C119.84 160.282 117.54 157.547 112.571 156.865ZM203.278 182.868C203.226 186.006 202.885 189.179 203.249 192.269C203.417 193.689 204.967 194.946 205.89 196.277C206.832 194.96 208.422 193.719 208.585 192.311C208.984 188.886 208.993 185.354 208.612 181.925C208.413 180.127 207.063 178.457 206.233 176.729C205.248 178.483 204.264 180.237 203.278 182.868ZM182.279 159.017C183.112 159.017 184.066 159.278 184.752 158.961C186.216 158.286 187.541 157.311 188.923 156.458C187.535 155.633 186.19 154.191 184.753 154.094C179.778 153.761 174.763 153.728 169.782 153.971C168.535 154.031 167.358 155.55 166.149 156.399C167.382 157.228 168.558 158.65 169.858 158.773C173.657 159.132 177.506 158.973 182.279 159.017ZM202.848 124.641C202.849 128.274 202.646 131.924 202.961 135.53C203.071 136.785 204.462 137.928 205.268 139.122C206.139 137.967 207.649 136.872 207.762 135.647C208.125 131.714 208.201 127.718 207.936 123.777C207.762 121.179 209.799 117.266 205.19 116.772C204.674 116.717 203.664 121.275 202.848 124.641ZM286.473 362.026C287.655 361.531 288.838 361.036 290.02 360.54C289.414 359.873 288.91 358.776 288.186 358.603C279.899 356.626 271.778 356.343 264.653 362.07C263.836 362.727 263.676 364.2 263.211 365.295C264.384 365.218 265.855 365.571 266.68 364.997C272.536 360.918 278.858 360.252 286.473 362.026ZM353.381 310.957C353.027 309.624 353.11 307.664 352.246 307.063C347.921 304.049 343.395 301.31 338.828 298.669C337.728 298.034 336.201 298.137 334.87 297.901C334.579 298.47 334.289 299.039 333.998 299.608C340.21 303.46 346.422 307.312 353.381 310.957ZM177.726 126.185C177.583 127.363 176.868 129.067 177.39 129.635C181.198 133.778 185.206 137.744 189.286 141.624C189.905 142.213 191.221 142.067 192.215 142.261C192.107 141.271 192.379 139.909 191.831 139.348C187.449 134.869 182.912 130.541 177.726 126.185ZM230.479 131.905C230.96 131.45 231.632 131.081 231.883 130.523C232.477 129.204 232.871 127.794 233.346 126.421C231.947 126.88 230.228 126.974 229.21 127.867C226.232 130.481 223.432 133.322 220.788 136.275C219.985 137.172 219.914 138.723 219.508 139.974C220.757 139.659 222.308 139.704 223.195 138.959C225.593 136.944 227.708 134.592 230.479 131.905ZM184.477 178.966C185.77 177.673 187.218 176.496 188.298 175.045C188.968 174.145 189.077 172.829 189.438 171.7C188.154 171.955 186.633 171.864 185.639 172.543C184.018 173.65 182.509 175.097 181.378 176.7C179.943 178.732 178.932 181.064 177.739 183.267C179.817 182.001 181.895 180.736 184.477 178.966ZM325.176 298.104C325.99 297.528 326.803 296.952 327.616 296.376C326.951 295.742 326.351 294.668 325.609 294.56C323.736 294.286 321.795 294.383 319.893 294.51C319.635 294.527 319.445 295.569 319.223 296.136C320.937 296.769 322.65 297.401 325.176 298.104Z" fill="#0A1D66"/>
<path d="M493.68 275.16C494.363 274.999 494.737 275.002 495.296 275.001C493.132 277.741 490.784 280.485 488.436 283.23C487.211 278.274 490.201 276.727 493.68 275.16Z" fill="#0A1E65"/>
<path d="M511.013 315.01C511.093 314.813 511.154 314.596 511.214 314.379C511.289 314.644 511.365 314.909 511.2 315.061C510.961 314.948 510.994 314.991 511.013 315.01Z" fill="#0A1D66"/>
<path d="M499.841 350.717C500.134 350.709 500.412 350.667 500.691 350.625C500.47 350.794 500.249 350.964 499.915 350.872C499.803 350.61 499.826 350.682 499.841 350.717Z" fill="#0A1D66"/>
<path d="M212.466 300.477C198.121 314.018 183.397 326.472 165.957 335.274C150.031 343.311 133.349 348.716 115.341 348.994C81.5876 349.514 55.8351 330.505 47.216 297.851C44.4814 287.491 43.7341 276.582 42.4973 265.876C42.3028 264.192 44.3485 262.249 45.3583 260.426C46.4396 262.041 48.2282 263.552 48.4844 265.289C49.8886 274.806 49.9926 284.602 52.2392 293.892C60.6494 328.671 89.1087 347.294 124.522 342.362C153.568 338.318 177.848 324.628 198.574 304.863C218.442 285.918 237.043 265.644 256.198 245.952C257.475 244.639 259.044 243.478 259.906 241.929C260.745 240.423 261.497 238.377 261.175 236.794C258.898 225.584 266.515 218.261 277.712 220.756C279.458 221.145 282.124 220.009 283.577 218.701C296.386 207.172 309.892 196.65 325.583 189.301C351.146 177.33 377.675 172.006 405.628 179.079C425.957 184.222 441.674 195.763 452.018 214.231C452.749 215.537 453.817 216.874 453.918 218.255C454.039 219.904 453.286 221.616 452.912 223.301C451.507 222.449 449.674 221.915 448.771 220.693C444.344 214.7 440.908 207.795 435.758 202.552C420.619 187.136 401.305 181.66 380.245 181.989C349.539 182.468 322.949 194.067 299.319 213.118C295.172 216.461 291.001 219.824 287.254 223.589C285.939 224.911 285.042 227.61 285.359 229.436C287.046 239.165 279.601 246.989 270.066 244.606C266.986 243.836 265.551 244.728 263.708 246.674C246.755 264.568 229.734 282.399 212.466 300.477ZM270.261 238.536C276.628 239.692 281.388 236.095 279.417 231.242C278.539 229.08 275.826 226.826 273.569 226.331C271.816 225.946 268.659 227.709 267.581 229.43C265.697 232.435 266.355 235.789 270.261 238.536Z" fill="#35D826"/>
<path d="M191.318 238.018C192.197 236.436 192.828 235.142 193.877 232.99C191.616 233.198 190.157 233.081 188.868 233.497C184.606 234.871 180.473 236.69 176.153 237.818C174.126 238.348 170.341 238.411 169.853 237.435C168.206 234.141 171.614 233.445 173.799 232.62C178.763 230.746 183.71 228.532 188.871 227.593C191.728 227.072 196.264 227.896 197.725 229.849C199.122 231.716 198.637 236.69 197.021 238.797C191.897 245.479 186.091 251.697 180.07 257.607C177.232 260.393 175.338 262.821 174.767 267.057C172.491 283.941 155.272 295.367 138.637 291.196C134.769 290.226 131.859 291.042 128.348 292.489C120.421 295.757 112.35 299.116 104.007 300.807C96.5457 302.319 93.1575 296.869 97.2514 290.422C100.688 285.01 105.304 280.31 109.712 275.588C110.516 274.725 112.827 275.269 114.443 275.163C114.12 276.768 114.288 278.759 113.384 279.905C110.51 283.553 107.158 286.82 104.158 290.376C103.044 291.696 102.395 293.408 100.785 296.273C111.079 294.709 118.888 290.625 127.159 286.588C115.628 275.694 111.35 263.153 118.486 248.624C124.054 237.285 133.827 231.579 146.444 232.103C160.694 232.694 169.562 240.94 174.931 255.154C180.59 249.246 185.83 243.776 191.318 238.018ZM167.338 268.126C158.869 273.897 150.4 279.669 141.814 285.52C154.431 287.722 166.974 279.21 168.291 267.992C168.202 268.007 168.113 268.022 167.338 268.126ZM134.894 282.347C145.274 275.419 155.609 268.422 166.063 261.607C169.023 259.677 169.258 257.611 168.148 254.469C164.697 244.704 156.125 238.176 145.978 237.977C135.418 237.769 126.38 243.826 122.679 253.59C118.303 265.137 123.944 279.307 134.894 282.347Z" fill="#35D826"/>
<path d="M314.99 324.044C309.446 320.12 304.096 316.526 298.873 312.755C297.155 311.515 295.766 309.817 294.227 308.329C296.122 307.23 297.893 305.573 299.932 305.118C319.34 300.791 336.218 306.24 350.659 319.348C358.288 326.271 365.568 333.641 372.44 341.316C378.508 348.093 385.626 351.638 394.641 352.067C396.176 352.14 397.62 354.115 399.105 355.211C397.567 356.103 396.02 357.776 394.491 357.759C384.569 357.65 376.212 354.109 369.261 346.647C361.105 337.894 352.717 329.277 343.724 321.408C334.589 313.415 323.647 309.07 311.169 309.7C310.265 309.746 309.368 309.907 310.221 308.756C314.371 313.876 319.111 318.637 322.498 324.221C325.618 329.364 328.066 335.212 329.396 341.071C331.172 348.897 326.594 355.719 318.574 356.758C312.509 357.544 306.104 356.493 299.952 355.572C294.89 354.815 290.004 352.94 284.995 351.751C272.508 348.785 262.022 351.899 253.743 362.018C252.129 363.991 250.242 367.843 247.101 365.232C243.79 362.481 247.546 360.43 249.185 358.363C259.728 345.072 273.489 342.533 289.144 346.443C295.592 348.053 301.978 349.919 308.452 351.41C310.669 351.921 313.121 351.999 315.374 351.663C322.205 350.644 325.292 346.668 323.162 340.119C321.359 334.574 317.938 329.556 314.99 324.044Z" fill="#35D726"/>
<path d="M473.278 264.179C463.338 273.305 453.741 282.273 443.901 290.965C442.402 292.289 438.68 293.511 437.867 292.755C435.197 290.274 438.096 288.429 439.84 286.815C446.674 280.496 453.572 274.246 460.458 267.983C461.637 266.91 462.872 265.898 463.488 263.89C457.926 263.89 452.359 264.024 446.806 263.814C444.989 263.745 443.206 262.781 441.407 262.226C442.075 260.504 442.353 258.455 443.476 257.114C449.45 249.98 455.537 242.934 461.836 236.088C462.998 234.826 465.314 234.625 467.098 233.934C466.812 235.947 467.214 238.507 466.123 239.879C461.415 245.794 456.27 251.361 451.062 257.309C458.122 257.309 464.527 257.176 470.919 257.403C472.517 257.46 474.075 258.677 475.652 259.36C474.948 260.884 474.245 262.408 473.278 264.179Z" fill="#35D726"/>
<path d="M43.94 217.817C39.9516 207.968 43.3406 198.581 51.9449 194.836C60.4731 191.124 70.3263 194.997 74.0455 203.522C77.5091 211.46 74.2348 220.687 66.4542 224.913C58.5936 229.182 49.8725 226.546 43.94 217.817ZM50.9113 217.532C56.8287 222.291 62.9617 222.021 67.1403 216.817C70.7746 212.291 69.9269 205.369 65.28 201.629C61.5094 198.595 55.6587 198.641 51.901 201.735C47.3109 205.515 46.7747 210.887 50.9113 217.532Z" fill="#35D726"/>
<path d="M221.878 156.937C221.46 166.441 215.619 172.786 207.068 173.026C198.675 173.261 191.837 167.339 191.063 159.165C190.3 151.105 195.92 143.87 204.123 142.353C211.286 141.028 218.058 145.31 221.048 153.773C221.311 155.298 221.594 156.117 221.878 156.937ZM199.549 151.11C195.833 157.028 196.199 161.767 200.635 165.186C204.633 168.267 210.268 167.719 213.625 163.923C216.725 160.418 216.811 155.355 213.833 151.622C210.546 147.501 205.808 147.137 199.549 151.11Z" fill="#35D826"/>
<path d="M449.736 315.525C450.918 310.656 451.792 306.099 453.086 301.664C453.499 300.248 455.025 299.156 456.041 297.917C456.989 299.214 458.907 300.677 458.719 301.782C457.781 307.303 457.037 313.052 454.849 318.128C449.178 331.282 440.568 342.088 427.228 348.403C426.478 348.757 425.659 349.341 424.923 349.272C423.189 349.11 421.485 348.617 419.77 348.259C420.708 346.81 421.329 344.556 422.635 344.044C431.195 340.684 437.611 334.782 442.814 327.5C445.409 323.868 447.352 319.771 449.736 315.525Z" fill="#35D826"/>
<path d="M243.878 190.259C244.507 191.893 244.885 193.265 245.262 194.637C244.256 194.32 242.96 194.3 242.288 193.642C235.519 187.011 228.828 180.298 222.192 173.533C221.492 172.82 221.286 171.624 220.852 170.652C221.174 170.272 221.495 169.892 221.817 169.512C223.277 170.398 224.976 171.042 226.155 172.211C232.054 178.064 237.816 184.054 243.878 190.259Z" fill="#35D726"/>
<path d="M112.971 156.87C117.54 157.547 119.84 160.282 118.749 164.119C118.139 166.261 115.138 169.157 113.253 169.129C111.018 169.097 107.947 166.741 106.812 164.57C105.015 161.129 107.593 158.187 112.971 156.87Z" fill="#35D826"/>
<path d="M222.298 157.048C221.595 156.117 221.312 155.298 221.059 154.129C227.628 153.551 234.17 153.141 240.704 153.234C242.139 153.254 243.549 155.066 244.97 156.053C243.419 156.849 241.854 158.349 240.32 158.318C234.447 158.198 228.583 157.587 222.298 157.048Z" fill="#33D028"/>
<path d="M203.277 182.429C204.262 180.237 205.247 178.483 206.232 176.729C207.062 178.457 208.411 180.127 208.611 181.925C208.991 185.354 208.983 188.886 208.584 192.311C208.421 193.719 206.83 194.96 205.889 196.277C204.966 194.946 203.416 193.689 203.248 192.269C202.884 189.179 203.224 186.006 203.277 182.429Z" fill="#33D028"/>
<path d="M181.807 159.017C177.505 158.973 173.657 159.132 169.857 158.773C168.558 158.65 167.381 157.228 166.148 156.399C167.358 155.55 168.534 154.031 169.781 153.97C174.762 153.728 179.777 153.761 184.753 154.094C186.189 154.19 187.535 155.633 188.922 156.458C187.54 157.31 186.215 158.286 184.752 158.961C184.065 159.278 183.112 159.017 181.807 159.017Z" fill="#35D826"/>
<path d="M202.865 124.168C203.663 121.275 204.674 116.717 205.189 116.772C209.798 117.266 207.761 121.179 207.936 123.777C208.2 127.718 208.124 131.714 207.761 135.647C207.648 136.872 206.138 137.967 205.268 139.122C204.462 137.928 203.07 136.785 202.96 135.53C202.645 131.924 202.848 128.274 202.865 124.168Z" fill="#35D826"/>
<path d="M286.037 361.977C278.857 360.252 272.535 360.918 266.68 364.997C265.854 365.572 264.383 365.219 263.211 365.295C263.676 364.2 263.836 362.727 264.653 362.07C271.778 356.344 279.898 356.627 288.185 358.603C288.909 358.776 289.413 359.873 290.019 360.541C288.837 361.036 287.655 361.531 286.037 361.977Z" fill="#33D028"/>
<path d="M353.007 311.061C346.422 307.312 340.21 303.46 333.998 299.608C334.289 299.039 334.579 298.47 334.87 297.901C336.201 298.138 337.728 298.034 338.828 298.67C343.396 301.311 347.921 304.05 352.246 307.063C353.11 307.664 353.027 309.624 353.007 311.061Z" fill="#33D028"/>
<path d="M178.074 126.176C182.912 130.541 187.448 134.869 191.83 139.348C192.378 139.909 192.106 141.271 192.215 142.261C191.221 142.067 189.904 142.213 189.285 141.624C185.206 137.744 181.198 133.778 177.389 129.635C176.868 129.067 177.583 127.363 178.074 126.176Z" fill="#35D726"/>
<path d="M230.207 132.139C227.708 134.592 225.593 136.944 223.195 138.959C222.308 139.704 220.756 139.659 219.508 139.974C219.914 138.723 219.985 137.171 220.787 136.275C223.432 133.322 226.232 130.481 229.21 127.867C230.227 126.974 231.947 126.88 233.345 126.421C232.871 127.794 232.477 129.204 231.883 130.523C231.631 131.081 230.96 131.45 230.207 132.139Z" fill="#33D028"/>
<path d="M184.224 179.219C181.894 180.736 179.816 182.002 177.738 183.267C178.932 181.064 179.942 178.732 181.377 176.7C182.509 175.097 184.018 173.651 185.638 172.543C186.633 171.864 188.154 171.955 189.438 171.7C189.077 172.829 188.967 174.146 188.298 175.045C187.218 176.497 185.769 177.673 184.224 179.219Z" fill="#35D726"/>
<path d="M324.769 298.069C322.649 297.401 320.936 296.769 319.223 296.136C319.444 295.569 319.634 294.527 319.893 294.51C321.795 294.382 323.735 294.286 325.609 294.559C326.35 294.668 326.951 295.742 327.615 296.376C326.802 296.952 325.989 297.528 324.769 298.069Z" fill="#33D028"/>
<path d="M104.015 56.9893C104.388 57.0424 104.593 57.2643 104.798 57.4862C104.512 57.5841 104.226 57.682 103.733 57.6448C103.526 57.5098 103.848 57.1581 104.015 56.9893Z" fill="white"/>
<path d="M269.919 238.317C266.356 235.789 265.698 232.435 267.582 229.43C268.66 227.709 271.817 225.946 273.57 226.331C275.827 226.826 278.54 229.08 279.417 231.242C281.389 236.096 276.629 239.693 269.919 238.317Z" fill="#0A1E65"/>
<path d="M134.583 282.531C123.943 279.308 118.302 265.137 122.679 253.59C126.379 243.826 135.418 237.769 145.977 237.977C156.125 238.177 164.697 244.704 168.147 254.469C169.257 257.611 169.022 259.677 166.062 261.607C155.609 268.422 145.274 275.419 134.583 282.531Z" fill="#0A1E65"/>
<path d="M167.949 267.952C166.974 279.21 154.431 287.722 141.814 285.52C150.4 279.669 158.869 273.897 167.663 268.059C167.989 267.993 167.949 267.952 167.949 267.952Z" fill="#0A1E65"/>
<path d="M168.005 268.015C168.112 268.022 168.201 268.008 168.119 267.972C167.948 267.952 167.988 267.993 168.005 268.015Z" fill="#0A1E65"/>
<path d="M50.6456 217.25C46.7742 210.887 47.3103 205.514 51.9005 201.735C55.6581 198.641 61.5088 198.594 65.2795 201.629C69.9263 205.369 70.7741 212.291 67.1397 216.817C62.9611 222.021 56.8281 222.291 50.6456 217.25Z" fill="#0A1E65"/>
<path d="M199.823 150.838C205.809 147.137 210.546 147.502 213.834 151.622C216.812 155.356 216.726 160.418 213.626 163.924C210.269 167.719 204.634 168.267 200.636 165.186C196.2 161.768 195.834 157.029 199.823 150.838Z" fill="#0A1E65"/>
</svg>
